<svg width="169" height="94" viewBox="0 0 169 94" fill="none" xmlns="http://www.w3.org/2000/svg">
<path fill-rule="evenodd" clip-rule="evenodd" d="M126.375 23.6141C122.549 35.0308 113.883 44.0238 100.404 23.8745C95.3066 15.5044 90.2666 9.22618 85.3468 7.28035C62.3926 1.93618 66.2818 38.3434 67.8954 52.741C65.1338 37.8514 58.7805 2.85818 81.0923 3.49791C85.4554 3.62304 87.584 4.8396 91.1284 7.45225C95.0191 10.3208 99.3828 14.4029 103.945 18.9957C109.825 25.0503 117.198 26.8835 126.375 23.6141Z" fill="#7ac788"/>
<path fill-rule="evenodd" clip-rule="evenodd" d="M102.385 21.9844C107.602 27.5826 114.226 29.9468 122.898 27.6054C115.788 39.0118 106.928 29.9779 102.385 21.9844Z" fill="white"/>
<path fill-rule="evenodd" clip-rule="evenodd" d="M108.616 39.7169C123.298 43.2419 137.076 40.1126 151.204 32.8092C139.97 42.1473 126.721 47.7158 108.905 44.7356C102.542 43.6705 98.776 42.3345 93.182 39.0742C76.4815 29.3399 70.1247 15.7914 68.2539 0.588867C74.2071 13.5028 80.3285 27.8268 96.3169 35.4599C100.05 37.2421 104.593 38.7506 108.616 39.7169Z" fill="#7CD1F1"/>
<path fill-rule="evenodd" clip-rule="evenodd" d="M97.5091 33.5459L101.432 35.0541L97.9645 44.5214L94.041 43.0132L97.5091 33.5459Z" fill="#7ac788"/>
<path fill-rule="evenodd" clip-rule="evenodd" d="M103.411 35.7461L107.335 37.2543L103.867 46.7218L99.9434 45.2136L103.411 35.7461Z" fill="#7ac788"/>
<path fill-rule="evenodd" clip-rule="evenodd" d="M113.32 70.2301C91.1093 95.9916 67.5906 88.4002 68.1909 55.2031C76.9271 83.9963 92.3665 84.532 113.32 70.2301Z" fill="#EF839B"/>
<path fill-rule="evenodd" clip-rule="evenodd" d="M82.8712 79.7568L84.4465 80.2884L83.3566 83.6L81.7812 83.0684L82.8712 79.7568Z" fill="#F9F9F9"/>
<path fill-rule="evenodd" clip-rule="evenodd" d="M86.5704 80.6865L88.1457 81.2183L87.0556 84.5299L85.4805 83.9983L86.5704 80.6865Z" fill="#F9F9F9"/>
<path fill-rule="evenodd" clip-rule="evenodd" d="M90.4649 80.3896L92.0403 80.9212L90.9501 84.233L89.375 83.7012L90.4649 80.3896Z" fill="#F9F9F9"/>
<path fill-rule="evenodd" clip-rule="evenodd" d="M94.1485 79.9697L95.7237 80.5013L94.6337 83.8129L93.0586 83.2813L94.1485 79.9697Z" fill="#F9F9F9"/>
<path fill-rule="evenodd" clip-rule="evenodd" d="M80.9616 78.4948L79.3707 78.0137L78.4141 81.3681L80.005 81.8492L80.9616 78.4948Z" fill="#F9F9F9"/>
<path fill-rule="evenodd" clip-rule="evenodd" d="M78.02 75.641L76.4293 75.1602L75.4727 78.5143L77.0634 78.9954L78.02 75.641Z" fill="#F9F9F9"/>
<path fill-rule="evenodd" clip-rule="evenodd" d="M75.5026 72.4538L73.9117 71.9727L72.9551 75.3271L74.546 75.8079L75.5026 72.4538Z" fill="#F9F9F9"/>
<path fill-rule="evenodd" clip-rule="evenodd" d="M111.111 14.1609C103.24 5.68253 112.005 -2.21877 129.114 0.570724C116.159 3.11398 115.743 8.63632 125.788 10.0709C140.121 10.964 144.657 17.2143 142.183 27.2033C139.899 36.4175 127.101 56.5276 113.742 68.6027L113.714 68.5879C145.48 14.6435 136.997 34.0098 111.111 14.1609Z" fill="#B1C900"/>
<path fill-rule="evenodd" clip-rule="evenodd" d="M136.59 33.163C138.675 18.0136 126.455 20.737 122.234 15.2525C134.138 9.38342 144.937 21.633 136.59 33.163Z" fill="white"/>
<path fill-rule="evenodd" clip-rule="evenodd" d="M18.2268 64.9544C18.2268 63.5626 18.073 62.404 17.7654 61.4851C17.4578 60.5595 16.9964 59.767 16.381 59.1011C15.1814 57.736 13.2278 56.7972 10.5208 56.2911L6.50627 55.6118C5.15274 55.3721 4.29136 55.0924 3.92215 54.7662C3.52223 54.4998 3.32226 54.1136 3.32226 53.6075C3.32226 52.915 3.46843 52.4422 3.76062 52.2025C4.05297 51.9628 4.38374 51.8296 4.75282 51.803H6.32165H13.4279C13.9508 51.803 14.3815 51.6698 14.7198 51.4034L15.1352 50.7243L15.2274 50.0051C15.2274 49.4457 15.0583 48.9795 14.7198 48.6066C14.3815 48.3403 13.9508 48.207 13.4279 48.207H6.32165C4.38374 48.207 2.83012 48.6732 1.66121 49.6055C0.553675 50.6176 0 52.0027 0 53.7606C0 55.3588 0.492297 56.5774 1.47659 57.4164C2.46104 58.2555 4.12225 58.9014 6.46008 59.3542L10.1055 59.9934C11.9205 60.3131 13.1664 60.8858 13.8431 61.7114C14.52 62.4573 14.8583 63.6691 14.8583 65.3473C14.8583 67.8244 14.243 69.5957 13.0125 70.6611C12.3666 71.247 11.5513 71.6865 10.567 71.9796C10.1671 72.0861 9.60563 72.1793 8.88268 72.2593C8.15971 72.3391 7.49056 72.379 6.87533 72.379H1.79964C1.27664 72.379 0.845864 72.5256 0.507486 72.8185C0.169269 73.1116 0 73.5777 0 74.217C0 74.9095 0.18462 75.3622 0.553675 75.5754C0.799835 75.8683 1.21494 76.0149 1.79964 76.0149H7.10614C8.95196 76.0149 10.5516 75.7818 11.9051 75.3156C13.2587 74.8429 14.4122 74.157 15.3658 73.2514C17.2732 71.3536 18.2268 68.5835 18.2268 64.9544ZM35.1154 73.9772V57.0769C35.1154 56.4109 34.9539 55.8915 34.631 55.5186C34.308 55.1457 33.9619 54.9592 33.5928 54.9592C33.1005 54.9592 32.6852 55.1591 32.3468 55.5585C32.1007 55.9848 31.9776 56.5041 31.9776 57.1168V65.0676C31.9776 67.7577 31.5932 69.7487 30.8242 71.0406C30.0549 72.3324 28.9322 72.9783 27.4556 72.9783C26.1021 72.9783 25.1252 72.5589 24.5255 71.7198C23.9255 70.8808 23.6256 69.2893 23.6256 66.9454V57.1168C23.6256 56.4509 23.4873 55.9182 23.2103 55.5186C22.872 55.1457 22.5027 54.9592 22.1028 54.9592C21.5799 54.9592 21.1646 55.1724 20.857 55.5986C20.7032 55.9182 20.6032 56.1779 20.557 56.3776C20.5108 56.5774 20.4879 56.8238 20.4879 57.1168V68.064C20.4879 70.7543 21.0723 72.8119 22.2413 74.2369C23.4102 75.6619 25.0254 76.3745 27.0865 76.3745C28.317 76.3745 29.4243 76.0814 30.4088 75.4955C30.6856 75.3622 30.9318 75.2091 31.1471 75.0359C31.3624 74.8629 31.5317 74.723 31.6547 74.6165L31.9776 74.4566V73.9772C31.9776 74.6165 32.1161 75.1359 32.3931 75.5354C32.6697 75.935 33.0698 76.1347 33.5928 76.1347C34.0542 76.1347 34.4233 75.9283 34.7002 75.5155C34.977 75.1026 35.1154 74.5899 35.1154 73.9772ZM48.451 56.5973C48.451 55.9848 48.2817 55.5386 47.9435 55.2589C47.6051 54.9792 47.1592 54.8394 46.6053 54.8394C45.6209 54.8394 44.6364 55.0659 43.6521 55.5186L42.314 56.3976L42.1293 56.4776V57.0769C42.1293 56.4375 41.9909 55.9248 41.7141 55.5386C41.4372 55.1524 41.068 54.9592 40.6066 54.9592L40.0068 55.0392C39.8836 55.0659 39.6683 55.2389 39.3608 55.5585C39.1146 55.9848 38.9917 56.5041 38.9917 57.1168V73.9772C38.9917 74.5366 39.1146 75.056 39.3608 75.5354C39.6991 75.935 40.1143 76.1347 40.6066 76.1347C41.2218 76.0548 41.6065 75.8284 41.7603 75.4555C42.0064 75.076 42.1293 74.5832 42.1293 73.9706V66.0598C42.1293 65.3939 42.1293 64.8011 42.1293 64.2951C42.1293 63.789 42.1985 63.1099 42.3369 62.2708C42.4755 61.425 42.6522 60.7126 42.8676 60.12C43.3906 59.1011 44.2519 58.5151 45.4518 58.3553H46.2361C46.913 58.3553 47.4514 58.1822 47.8513 57.836C48.2512 57.4897 48.451 57.0769 48.451 56.5973ZM61.0484 62.5104H51.4966C51.6195 61.2054 52.0656 60.1666 52.8347 59.3941C53.7268 58.4619 54.8652 57.9958 56.2494 57.9958C57.6645 57.9958 58.818 58.4619 59.7102 59.3941C60.4792 60.1399 60.9252 61.1787 61.0484 62.5104ZM64.3245 64.2285V63.4694C64.3245 61.0456 63.5633 58.988 62.0405 57.2966C60.5177 55.6052 58.6334 54.7595 56.3877 54.7595C55.1265 54.7595 54.0037 54.9993 53.0194 55.4787C52.0349 56.0114 51.112 56.7838 50.2506 57.7959C48.6816 59.767 47.8973 62.2975 47.8973 65.3872C47.8973 67.3316 48.2357 69.0896 48.9126 70.6611C49.5892 72.2326 50.4814 73.4178 51.5888 74.217C52.0194 74.5366 52.4655 74.8096 52.927 75.0359C53.3884 75.2624 53.9114 75.4422 54.4958 75.5754C55.6033 75.8683 57.0337 76.0149 58.7873 76.0149H62.1558C62.6788 76.0149 63.1095 75.8683 63.4478 75.5754C63.7862 75.2824 63.9554 74.8562 63.9554 74.2968C63.9554 73.7109 63.7708 73.2714 63.4017 72.9783C63.1249 72.712 62.7096 72.5789 62.1558 72.5789H58.6026C55.9264 72.5789 54.0037 72.0328 52.8347 70.9408C51.7581 69.7687 51.2196 67.9175 51.2196 65.3872V65.8666H62.8019C63.2633 65.8134 63.6324 65.6669 63.9094 65.4271C64.1861 65.0542 64.3245 64.6548 64.3245 64.2285ZM103.731 64.9544C103.731 63.5626 103.578 62.404 103.27 61.4851C102.962 60.5595 102.501 59.767 101.886 59.1011C100.686 57.736 98.7325 56.7972 96.0254 56.2911L92.0109 55.6118C90.6574 55.3721 89.7959 55.0924 89.4268 54.7662C89.0269 54.4998 88.8269 54.1136 88.8269 53.6075C88.8269 52.915 88.9731 52.4422 89.2653 52.2025C89.5574 51.9628 89.8882 51.8296 90.2575 51.803H91.8263H98.9324C99.4554 51.803 99.886 51.6698 100.224 51.4034L100.64 50.7243L100.732 50.0051C100.732 49.4457 100.563 48.9795 100.224 48.6066C99.886 48.3403 99.4554 48.207 98.9324 48.207H91.8263C89.8882 48.207 88.3348 48.6732 87.1658 49.6055C86.0582 50.6176 85.5046 52.0027 85.5046 53.7606C85.5046 55.3588 85.9968 56.5774 86.9812 57.4164C87.9657 58.2555 89.6269 58.9014 91.9647 59.3542L95.61 59.9934C97.425 60.3131 98.6711 60.8858 99.3477 61.7114C100.025 62.4573 100.363 63.6691 100.363 65.3473C100.363 67.8244 99.7476 69.5957 98.5172 70.6611C97.8713 71.247 97.0559 71.6865 96.0715 71.9796C95.6715 72.0861 95.1101 72.1793 94.3873 72.2593C93.6644 72.3391 92.9952 72.379 92.38 72.379H87.3043C86.7811 72.379 86.3505 72.5256 86.0121 72.8185C85.6737 73.1116 85.5046 73.5777 85.5046 74.217C85.5046 74.9095 85.6891 75.3622 86.0582 75.5754C86.3043 75.8683 86.7196 76.0149 87.3043 76.0149H92.6108C94.4566 76.0149 96.0563 75.7818 97.4098 75.3156C98.7632 74.8429 99.9169 74.157 100.87 73.2514C102.778 71.3536 103.731 68.5835 103.731 64.9544ZM132.387 73.9772V63.1498C132.387 60.5395 131.833 58.4886 130.726 56.9969C129.495 55.5319 127.849 54.7994 125.788 54.7994C125.173 54.7994 124.604 54.8794 124.081 55.0392L122.604 55.5986C122.143 55.8649 121.727 56.1845 121.358 56.5574L119.882 58.0756C119.297 57.0368 118.59 56.2645 117.759 55.7584C116.836 55.119 115.652 54.7994 114.206 54.7994C113.714 54.7994 113.16 54.866 112.545 54.9993L111.068 55.5585L110.145 56.2378L109.407 56.8371V57.0769C109.407 56.4642 109.269 55.9315 108.992 55.4787C108.715 55.1324 108.346 54.9592 107.884 54.9592L107.285 55.0392C107.161 55.0659 106.946 55.2389 106.638 55.5585C106.392 55.9848 106.269 56.5041 106.269 57.1168V73.9772C106.269 74.5366 106.392 75.056 106.638 75.5354C106.977 75.935 107.392 76.1347 107.884 76.1347C108.5 76.0548 108.884 75.8284 109.038 75.4555C109.284 75.0826 109.407 74.5899 109.407 73.9772V66.1064C109.407 63.3894 109.792 61.3519 110.553 59.9934C111.353 58.7948 112.483 58.1955 113.952 58.1955C115.36 58.1955 116.344 58.6417 116.913 59.5339C117.475 60.4263 117.759 62.0044 117.759 64.2684V73.9772C117.759 74.5366 117.882 75.056 118.128 75.5354C118.467 75.935 118.882 76.1347 119.374 76.1347C119.928 76.0548 120.297 75.855 120.482 75.5354C120.758 75.1625 120.897 74.6431 120.897 73.9772V66.1064C120.897 63.3894 121.281 61.3519 122.05 59.9934C122.85 58.7948 123.989 58.1955 125.465 58.1955C126.788 58.1955 127.757 58.6217 128.372 59.4741C128.926 60.3264 129.203 61.9246 129.203 64.2684V73.9772C129.203 74.6431 129.341 75.1692 129.618 75.5554C129.895 75.9416 130.31 76.1347 130.864 76.1347C131.449 76.0548 131.848 75.8351 132.064 75.4754C132.279 75.1159 132.387 74.6165 132.387 73.9772ZM139.032 73.9772V57.1966C139.032 56.6107 138.908 56.1047 138.67 55.6784C138.393 55.3055 137.986 55.119 137.439 55.119C136.893 55.199 136.509 55.4187 136.278 55.7784C136.055 56.1379 135.94 56.624 135.94 57.2367V73.9772C135.94 74.6697 136.078 75.2024 136.347 75.5754C136.624 75.9483 137.001 76.1347 137.486 76.1347C138.124 76.0548 138.501 75.8418 138.624 75.4955C138.893 75.1226 139.032 74.6165 139.032 73.9772ZM139.032 52.642V51.723L138.662 51.0038C138.385 50.5777 138.001 50.3646 137.509 50.3646C136.955 50.3646 136.555 50.5443 136.309 50.904C136.063 51.2635 135.94 51.8563 135.94 52.6819C135.94 53.4543 136.063 53.987 136.301 54.2801C136.609 54.7862 137.001 55.0392 137.486 55.0392C138.093 54.9061 138.501 54.6663 138.716 54.32C138.924 53.9738 139.032 53.4144 139.032 52.642ZM145.815 73.9772V50.3247C145.815 49.7653 145.676 49.2592 145.399 48.8065L144.799 48.3269L144.2 48.207C143.923 48.207 143.707 48.2603 143.554 48.367L143 48.8065C142.754 49.1792 142.631 49.6987 142.631 50.3646V73.9772C142.631 74.6964 142.777 75.2358 143.069 75.5953C143.361 75.955 143.738 76.1347 144.2 76.1347C144.815 76.0548 145.238 75.8351 145.469 75.4754C145.699 75.1159 145.815 74.6165 145.815 73.9772ZM161.504 62.5104H151.952C152.075 61.2054 152.521 60.1666 153.29 59.3941C154.182 58.4619 155.32 57.9958 156.705 57.9958C158.12 57.9958 159.273 58.4619 160.165 59.3941C160.934 60.1399 161.38 61.1787 161.504 62.5104ZM164.78 64.2285V63.4694C164.78 61.0456 164.018 58.988 162.496 57.2966C160.973 55.6052 159.089 54.7595 156.843 54.7595C155.582 54.7595 154.459 54.9993 153.475 55.4787C152.49 56.0114 151.567 56.7838 150.706 57.7959C149.137 59.767 148.353 62.2975 148.353 65.3872C148.353 67.3316 148.691 69.0896 149.368 70.6611C150.044 72.2326 150.937 73.4178 152.044 74.217C152.475 74.5366 152.921 74.8096 153.382 75.0359C153.844 75.2624 154.367 75.4422 154.951 75.5754C156.059 75.8683 157.489 76.0149 159.243 76.0149H162.611C163.134 76.0149 163.565 75.8683 163.903 75.5754C164.241 75.2824 164.411 74.8562 164.411 74.2968C164.411 73.7109 164.226 73.2714 163.857 72.9783C163.58 72.712 163.165 72.5789 162.611 72.5789H159.058C156.382 72.5789 154.459 72.0328 153.29 70.9408C152.213 69.7687 151.675 67.9175 151.675 65.3872V65.8666H163.257C163.719 65.8134 164.088 65.6669 164.365 65.4271C164.641 65.0542 164.78 64.6548 164.78 64.2285Z" fill="#8BC896"/>
<path fill-rule="evenodd" clip-rule="evenodd" d="M112.05 89.4324C112.05 89.838 111.992 90.2313 111.875 90.6097C111.758 90.9905 111.595 91.3219 111.385 91.604C111.175 91.8834 110.912 92.0837 110.596 92.2025L110.124 92.3214C109.867 92.3707 109.581 92.3955 109.266 92.3955H107.392V84.7528C108.735 84.7528 109.847 85.2027 110.728 86.1006C111.61 86.9984 112.05 88.1092 112.05 89.4324ZM113.398 89.405C113.398 87.6467 112.812 86.2045 111.638 85.0842C110.465 83.9638 108.95 83.4023 107.094 83.4023C106.709 83.4023 106.455 83.4543 106.332 83.558C106.21 83.6619 106.148 83.8573 106.148 84.1443V92.9891C106.148 93.2858 106.201 93.4911 106.306 93.6049C106.411 93.7188 106.615 93.7755 106.919 93.7755H108.968C109.925 93.7755 110.629 93.6841 111.078 93.501C111.528 93.3179 111.939 93.0087 112.313 92.576L112.786 91.8933C112.937 91.6361 113.054 91.3888 113.136 91.1514C113.311 90.5899 113.398 90.0062 113.398 89.405ZM119.073 88.7597H115.448C115.494 88.2747 115.664 87.889 115.955 87.602C116.294 87.2557 116.726 87.0825 117.251 87.0825C117.789 87.0825 118.227 87.2557 118.565 87.602C118.857 87.8791 119.027 88.2648 119.073 88.7597ZM120.316 89.3977V89.1157C120.316 88.2154 120.027 87.451 119.449 86.823C118.872 86.1946 118.156 85.8804 117.304 85.8804C116.826 85.8804 116.399 85.9695 116.026 86.1476C115.652 86.3456 115.302 86.6326 114.975 87.0084C114.38 87.7407 114.082 88.6803 114.082 89.8281C114.082 90.5502 114.21 91.2034 114.467 91.787C114.724 92.3707 115.063 92.811 115.483 93.1077C115.646 93.2265 115.816 93.3278 115.991 93.4119C116.166 93.496 116.364 93.5629 116.586 93.6122C117.007 93.7211 117.549 93.7755 118.215 93.7755H119.493C119.692 93.7755 119.855 93.7211 119.983 93.6122C120.112 93.5036 120.176 93.3451 120.176 93.1375C120.176 92.9197 120.106 92.7564 119.966 92.6478C119.861 92.5488 119.703 92.4992 119.493 92.4992H118.145C117.129 92.4992 116.399 92.2965 115.955 91.891C115.547 91.4556 115.343 90.768 115.343 89.8281V90.0062H119.738C119.914 89.9864 120.053 89.9321 120.159 89.843C120.264 89.7043 120.316 89.556 120.316 89.3977ZM126.866 93.0312V89.0021C126.866 88.0026 126.656 87.2335 126.236 86.6992C125.815 86.1625 125.197 85.8953 124.38 85.8953C123.924 85.8953 123.509 85.9893 123.136 86.1774L122.786 86.4297L122.506 86.6521V86.7412C122.506 86.5137 122.453 86.3158 122.348 86.1476C122.243 86.0191 122.103 85.9549 121.928 85.9549L121.7 85.9844C121.653 85.9943 121.572 86.0585 121.455 86.1774C121.362 86.3356 121.315 86.5287 121.315 86.7587V93.0312C121.315 93.2414 121.362 93.4341 121.455 93.6122C121.583 93.7609 121.741 93.835 121.928 93.835C122.161 93.8052 122.307 93.7212 122.366 93.5828C122.459 93.4441 122.506 93.2587 122.506 93.0312V90.1026C122.506 89.0911 122.651 88.3317 122.943 87.8271C123.247 87.3795 123.679 87.1567 124.239 87.1567C124.777 87.1567 125.153 87.3226 125.369 87.654C125.585 87.988 125.693 88.574 125.693 89.4176V93.0312C125.693 93.2984 125.742 93.501 125.842 93.6347C125.941 93.7682 126.09 93.835 126.288 93.835C126.498 93.8052 126.638 93.7311 126.709 93.6122C126.814 93.4738 126.866 93.2808 126.866 93.0312ZM131.927 93.1524L131.893 92.8852L131.732 92.6773C131.601 92.5687 131.423 92.5141 131.198 92.5141H130.415C130.141 92.5141 129.966 92.4621 129.89 92.3585C129.811 92.2545 129.762 92.1482 129.738 92.0393V91.5199V87.2607H130.929C131.128 87.2607 131.291 87.2113 131.419 87.1123L131.595 86.8749L131.63 86.6376C131.63 86.4297 131.568 86.2737 131.446 86.1701C131.323 86.0661 131.151 86.0142 130.929 86.0142H129.738V84.8862C129.738 84.6786 129.686 84.4906 129.581 84.3224C129.452 84.1741 129.3 84.0996 129.125 84.0996C128.927 84.0996 128.778 84.1741 128.679 84.3224C128.58 84.4707 128.53 84.6637 128.53 84.9011V86.0142H128.355C128.156 86.0142 127.993 86.0585 127.865 86.1476C127.713 86.2764 127.637 86.4396 127.637 86.6376C127.637 86.8352 127.707 86.9935 127.847 87.1123C127.999 87.2113 128.168 87.2607 128.355 87.2607H128.53V91.2083C128.53 92.2174 128.682 92.8975 128.986 93.2487C129.289 93.6 129.82 93.7755 130.579 93.7755H131.209C131.431 93.7755 131.606 93.7211 131.735 93.6122C131.863 93.5036 131.927 93.35 131.927 93.1524ZM135.955 91.0895C135.955 91.2577 135.95 91.3911 135.938 91.4901C135.926 91.5891 135.897 91.7351 135.85 91.9281C135.803 92.1208 135.728 92.2717 135.622 92.3806C135.401 92.628 135.015 92.7515 134.467 92.7515C133.93 92.7515 133.509 92.6329 133.206 92.3955C132.949 92.1678 132.821 91.8364 132.821 91.401C132.821 90.8471 133.066 90.4416 133.556 90.1843C133.801 90.0357 134.14 89.9122 134.572 89.8132C134.77 89.7738 134.98 89.744 135.202 89.7241C135.424 89.7043 135.675 89.6947 135.955 89.6947V91.0895ZM137.129 93.0186V88.5518C137.129 87.602 136.962 86.9415 136.632 86.5707C136.3 86.1996 135.763 86.0142 135.018 86.0142H132.888C132.701 86.0142 132.552 86.0635 132.435 86.1625C132.318 86.2615 132.26 86.4296 132.26 86.667C132.26 86.865 132.318 87.0282 132.438 87.1567C132.602 87.2458 132.762 87.2904 132.914 87.2904H135.231C135.488 87.2904 135.684 87.3646 135.815 87.5129L135.955 87.9138V88.4479V88.5667L135.938 88.6111V88.522C135.345 88.522 134.779 88.5889 134.236 88.7223C133.696 88.8561 133.229 89.0415 132.832 89.2789C132.053 89.7834 131.665 90.5207 131.665 91.4901C131.665 92.2618 131.886 92.8581 132.33 93.2785C132.774 93.699 133.404 93.9092 134.222 93.9092C134.712 93.9092 135.103 93.845 135.395 93.7162L135.833 93.5086L135.938 93.4788L135.955 93.0186C135.955 93.2563 136.005 93.449 136.107 93.5974C136.209 93.746 136.358 93.8202 136.551 93.8202C136.787 93.7904 136.93 93.7112 136.977 93.5828C137.079 93.4639 137.129 93.2759 137.129 93.0186ZM139.668 93.0335V84.2333C139.668 84.0254 139.615 83.8377 139.51 83.6695L139.282 83.4914L139.055 83.4467C138.95 83.4467 138.868 83.4666 138.81 83.506L138.599 83.6695C138.506 83.8079 138.459 84.0009 138.459 84.2482V93.0335C138.459 93.3007 138.515 93.501 138.626 93.6347C138.737 93.7682 138.88 93.835 139.055 93.835C139.289 93.8052 139.449 93.7235 139.536 93.5901C139.624 93.4566 139.668 93.2709 139.668 93.0335ZM151.506 93.2265C151.506 92.9693 151.431 92.7912 151.279 92.6922C151.162 92.5932 150.934 92.5439 150.596 92.5439C149.171 92.5439 148.004 92.0887 147.093 91.1785C146.183 90.2684 145.727 89.1355 145.727 87.7801C145.727 86.7611 145.949 86.0042 146.393 85.5096C146.871 85.0445 147.613 84.812 148.617 84.812H150.631C150.818 84.812 150.975 84.7627 151.104 84.6637C151.255 84.5055 151.331 84.3323 151.331 84.1443C151.331 83.9069 151.261 83.7337 151.121 83.6248C151.016 83.506 150.853 83.4467 150.631 83.4467H149.09C148.576 83.4467 148.167 83.4616 147.864 83.4914C147.56 83.5209 147.274 83.5656 147.006 83.6248C146.527 83.7632 146.124 83.9761 145.797 84.2631C145.365 84.629 145.027 85.1335 144.781 85.7768C144.653 86.0933 144.563 86.3999 144.51 86.6968C144.458 86.9935 144.431 87.3596 144.431 87.795C144.431 89.546 145.021 91.0031 146.2 92.1655C147.379 93.3278 148.879 93.9092 150.701 93.9092C150.829 93.9092 150.929 93.8993 150.998 93.8794C151.068 93.8596 151.145 93.8225 151.226 93.7682C151.308 93.7139 151.375 93.6371 151.427 93.5381C151.48 93.4391 151.506 93.3355 151.506 93.2265ZM156.007 91.0895C156.007 91.2577 156.001 91.3911 155.99 91.4901C155.978 91.5891 155.949 91.7351 155.902 91.9281C155.855 92.1208 155.779 92.2717 155.674 92.3806C155.452 92.628 155.067 92.7515 154.519 92.7515C153.982 92.7515 153.561 92.6329 153.258 92.3955C153.001 92.1678 152.872 91.8364 152.872 91.401C152.872 90.8471 153.118 90.4416 153.608 90.1843C153.853 90.0357 154.192 89.9122 154.624 89.8132C154.822 89.7738 155.032 89.744 155.254 89.7241C155.476 89.7043 155.727 89.6947 156.007 89.6947V91.0895ZM157.18 93.0186V88.5518C157.18 87.602 157.014 86.9415 156.684 86.5707C156.351 86.1996 155.815 86.0142 155.07 86.0142H152.94C152.753 86.0142 152.604 86.0635 152.487 86.1625C152.37 86.2615 152.312 86.4296 152.312 86.667C152.312 86.865 152.37 87.0282 152.49 87.1567C152.654 87.2458 152.814 87.2904 152.966 87.2904H155.283C155.54 87.2904 155.736 87.3646 155.867 87.5129L156.007 87.9138V88.4479V88.5667L155.99 88.6111V88.522C155.397 88.522 154.831 88.5889 154.288 88.7223C153.748 88.8561 153.281 89.0415 152.884 89.2789C152.105 89.7834 151.717 90.5207 151.717 91.4901C151.717 92.2618 151.938 92.8581 152.382 93.2785C152.826 93.699 153.456 93.9092 154.273 93.9092C154.764 93.9092 155.155 93.845 155.446 93.7162L155.884 93.5086L155.99 93.4788L156.007 93.0186C156.007 93.2563 156.057 93.449 156.159 93.5974C156.261 93.746 156.41 93.8202 156.603 93.8202C156.839 93.7904 156.982 93.7112 157.029 93.5828C157.131 93.4639 157.18 93.2759 157.18 93.0186ZM162.119 86.5631C162.119 86.3356 162.055 86.1701 161.926 86.0661C161.798 85.9622 161.628 85.9102 161.418 85.9102C161.045 85.9102 160.671 85.9943 160.297 86.1625L159.79 86.4889L159.719 86.5187V86.7412C159.719 86.5038 159.667 86.3134 159.562 86.1701C159.457 86.0264 159.317 85.9549 159.142 85.9549L158.914 85.9844C158.867 85.9943 158.786 86.0585 158.669 86.1774C158.575 86.3356 158.529 86.5287 158.529 86.7587V93.0312C158.529 93.2414 158.575 93.4341 158.669 93.6122C158.797 93.7609 158.955 93.835 159.142 93.835C159.375 93.8052 159.521 93.7211 159.58 93.5801C159.673 93.4417 159.719 93.2563 159.719 93.0286V90.0853C159.719 89.8354 159.719 89.6152 159.719 89.4275C159.719 89.2368 159.746 88.9872 159.798 88.673C159.851 88.3588 159.918 88.0917 160 87.8741C160.198 87.4957 160.525 87.2755 160.981 87.2163H161.278C161.535 87.2163 161.739 87.1517 161.891 87.0233C162.043 86.8948 162.119 86.7412 162.119 86.5631ZM166.9 88.7597H163.275C163.321 88.2747 163.491 87.889 163.782 87.602C164.121 87.2557 164.553 87.0825 165.078 87.0825C165.615 87.0825 166.054 87.2557 166.392 87.602C166.684 87.8791 166.853 88.2648 166.9 88.7597ZM168.143 89.3977V89.1157C168.143 88.2154 167.854 87.451 167.276 86.823C166.699 86.1946 165.983 85.8804 165.131 85.8804C164.652 85.8804 164.226 85.9695 163.853 86.1476C163.479 86.3456 163.129 86.6326 162.802 87.0084C162.206 87.7407 161.909 88.6803 161.909 89.8281C161.909 90.5502 162.037 91.2034 162.294 91.787C162.551 92.3707 162.889 92.811 163.31 93.1077C163.473 93.2265 163.642 93.3278 163.817 93.4119C163.992 93.496 164.191 93.5629 164.413 93.6122C164.833 93.7211 165.376 93.7755 166.042 93.7755H167.32C167.518 93.7755 167.682 93.7211 167.811 93.6122C167.939 93.5036 168.003 93.3451 168.003 93.1375C168.003 92.9197 167.933 92.7564 167.793 92.6478C167.688 92.5488 167.53 92.4992 167.32 92.4992H165.971C164.956 92.4992 164.226 92.2965 163.782 91.891C163.374 91.4556 163.169 90.768 163.169 89.8281V90.0062H167.565C167.74 89.9864 167.88 89.9321 167.986 89.843C168.09 89.7043 168.143 89.556 168.143 89.3977Z" fill="#D7B369"/>
</svg>
